# This file uses centimeters as units for non-parametric coordinates.

mtllib flecha.mtl
g default
v -0.500000 7.225626 0.500000
v 0.500000 7.225626 0.500000
v -0.500000 7.225626 -0.500000
v 0.500000 7.225626 -0.500000
v -0.097383 9.333203 0.097383
v 0.097383 9.333203 0.097383
v 0.097383 9.333203 -0.097383
v -0.097383 9.333203 -0.097383
v -0.500000 5.299274 3.229679
v 0.500000 5.299274 3.229679
v 0.097383 6.678828 2.827062
v -0.097383 6.678828 2.827062
v -0.500000 5.350677 -3.314018
v 0.500000 5.350677 -3.314018
v -0.097383 6.730231 -2.911402
v 0.097383 6.730231 -2.911402
vt 0.375000 0.250000
vt 0.625000 0.250000
vt 0.375000 0.500000
vt 0.625000 0.500000
vt 0.375000 0.250000
vt 0.625000 0.250000
vt 0.625000 0.500000
vt 0.375000 0.500000
vt 0.375000 0.250000
vt 0.625000 0.250000
vt 0.625000 0.250000
vt 0.375000 0.250000
vt 0.625000 0.500000
vt 0.375000 0.500000
vt 0.375000 0.500000
vt 0.625000 0.500000
vn 0.000000 1.000000 0.000000
vn 0.000000 1.000000 0.000000
vn 0.000000 1.000000 0.000000
vn 0.000000 1.000000 0.000000
vn 0.000000 0.280158 0.959954
vn 0.000000 0.280158 0.959954
vn 0.000000 0.480813 0.876823
vn 0.000000 0.480813 0.876823
vn 0.947445 0.256744 0.190868
vn 0.950006 0.255009 -0.180162
vn 0.965353 0.232647 -0.118186
vn 0.964954 0.232576 0.121544
vn 0.000000 0.280158 -0.959954
vn 0.000000 0.280158 -0.959954
vn 0.000000 0.280158 -0.959954
vn 0.000000 0.280158 -0.959954
vn -0.950006 0.255009 -0.180162
vn -0.947445 0.256744 0.190868
vn -0.964954 0.232576 0.121544
vn -0.965353 0.232647 -0.118186
vn 0.000000 -0.817036 -0.576587
vn 0.000000 -0.817036 -0.576587
vn 0.000000 -0.817036 -0.576587
vn 0.000000 -0.817036 -0.576587
vn 0.936676 0.268271 0.225096
vn 0.936676 0.268271 0.225096
vn 0.000000 0.716927 0.697149
vn 0.000000 0.716927 0.697149
vn -0.936676 0.268271 0.225096
vn -0.936676 0.268271 0.225096
vn 0.000000 -0.832195 0.554483
vn 0.000000 -0.832195 0.554483
vn 0.000000 -0.832195 0.554483
vn 0.000000 -0.832195 0.554483
vn -0.940435 0.266040 -0.211673
vn -0.940435 0.266040 -0.211673
vn 0.000000 0.734099 -0.679043
vn 0.000000 0.734099 -0.679043
vn 0.000000 0.734099 -0.679043
vn 0.000000 0.734099 -0.679043
vn 0.940435 0.266040 -0.211673
vn 0.940435 0.266040 -0.211673
vn 0.000000 -1.000000 0.000000
vn 0.000000 -1.000000 0.000000
vn 0.000000 -1.000000 0.000000
vn 0.000000 -1.000000 0.000000
s off
g pCube1
usemtl initialShadingGroup
f 5/5/1 6/6/2 7/7/3 8/8/4
s 1
f 9/9/5 10/10/6 11/11/7 12/12/8
s 2
f 2/2/9 4/4/10 7/7/11 6/6/12
s off
f 14/13/13 13/14/14 15/15/15 16/16/16
s 3
f 3/3/17 1/1/18 5/5/19 8/8/20
s off
f 1/1/21 2/2/22 10/10/23 9/9/24
s 2
f 2/2/9 6/6/12 11/11/25 10/10/26
s 1
f 6/6/27 5/5/28 12/12/8 11/11/7
s 3
f 5/5/19 1/1/18 9/9/29 12/12/30
s off
f 4/4/31 3/3/32 13/14/33 14/13/34
s 3
f 3/3/17 8/8/20 15/15/35 13/14/36
s off
f 8/8/37 7/7/38 16/16/39 15/15/40
s 2
f 7/7/11 4/4/10 14/13/41 16/16/42
s off
f 2/2/43 1/1/44 3/3/45 4/4/46
